# Blender v2.75 (sub 0) OBJ File: ''
# www.blender.org
mtllib bench.mtl
o Cube
v 0.500000 0.800000 -0.928412
v 0.500000 0.800000 0.943872
v -0.500000 0.800000 0.943872
v -0.500000 0.800000 -0.928412
v 0.525000 1.025034 -1.049999
v 0.525000 1.025034 1.050001
v -0.525000 1.025034 1.049999
v -0.525000 1.025034 -1.050000
v 0.500000 0.895983 0.000000
v 0.000000 0.800000 -0.928412
v 0.500000 1.000000 -1.000000
v -0.000000 0.800000 0.943872
v 0.500000 1.000000 1.000000
v -0.500000 0.895983 -0.000000
v -0.500000 1.000000 1.000000
v -0.500000 1.000000 -1.000000
v 0.525000 1.025034 0.000000
v 0.000000 1.025034 -1.050000
v -0.000000 1.025034 1.050000
v -0.525000 1.025034 -0.000000
v 0.000000 1.000000 -1.000000
v -0.500000 1.000000 -0.000000
v -0.000000 1.000000 1.000000
v 0.500000 1.000000 0.000000
v 0.505673 1.247485 -1.011345
v 0.000000 0.895983 -0.000000
v 0.500000 0.800000 0.667635
v -0.250000 0.800000 -0.928412
v -0.250000 0.800000 0.943872
v -0.500000 0.800000 -0.667636
v 0.500000 0.800000 -0.667635
v 0.250000 0.800000 -0.928412
v 0.250000 0.800000 0.943872
v -0.500000 0.800000 0.667635
v -0.250000 0.895983 -0.000000
v 0.250000 0.895983 -0.000000
v 0.000000 0.800000 -0.667635
v -0.000000 0.800000 0.667635
v 0.250000 0.800000 0.667635
v 0.250000 0.800000 -0.667635
v -0.250000 0.800000 -0.667636
v -0.250000 0.800000 0.667635
v 0.500000 0.000000 -0.928412
v 0.500000 0.000000 0.943872
v -0.500000 0.000000 0.943872
v -0.500000 0.000000 -0.928412
v 0.500000 0.000000 0.667635
v -0.250000 0.000000 -0.928412
v -0.250000 0.000000 0.943872
v -0.500000 0.000000 -0.667636
v 0.500000 0.000000 -0.667635
v 0.250000 0.000000 -0.928412
v 0.250000 0.000000 0.943872
v -0.500000 0.000000 0.667635
v 0.250000 0.000000 0.667635
v 0.250000 0.000000 -0.667635
v -0.250000 0.000000 -0.667636
v -0.250000 0.000000 0.667635
v -0.500000 0.895983 0.333817
v -0.000000 0.895983 0.333817
v 0.500000 0.895983 0.333818
v 0.250000 0.895983 0.333818
v -0.250000 0.895983 0.333817
v 0.500000 0.895983 -0.333818
v -0.500000 0.895983 -0.333818
v 0.000000 0.895983 -0.333818
v 0.250000 0.895983 -0.333818
v -0.250000 0.895983 -0.333818
v 0.525000 1.196955 -1.049999
v 0.525000 1.196955 1.050001
v -0.525000 1.196955 1.049999
v -0.525000 1.196955 -1.050000
v 0.525000 1.196955 0.000000
v 0.000000 1.196955 -1.050000
v -0.000000 1.196955 1.050000
v -0.525000 1.196955 -0.000000
v 0.505672 1.247485 1.011346
v -0.505673 1.247485 1.011345
v -0.505673 1.247485 -1.011346
v 0.505673 1.247485 0.000000
v 0.000000 1.247485 -1.011345
v -0.000000 1.247485 1.011346
v -0.505673 1.247485 -0.000000
v -0.000000 1.247485 0.000000
vn 1.000000 0.000000 0.000000
vn 0.000000 0.000000 -1.000000
vn 0.707600 -0.706600 0.000000
vn -0.000000 -0.894200 0.447700
vn -0.707600 -0.706600 -0.000000
vn 0.000000 -0.337000 -0.941500
vn 0.000000 -0.894200 -0.447700
vn -1.000000 -0.000000 -0.000000
vn -0.000000 -0.270200 0.962800
vn -0.000000 0.000000 1.000000
vn 0.000000 -1.000000 0.000000
vn 0.000000 -0.961100 -0.276300
vn 0.000000 -0.961100 0.276300
vn 0.934000 0.357200 0.000000
vn -0.000000 0.607600 0.794300
vn 0.000000 1.000000 -0.000000
vn -0.934000 0.357200 -0.000000
vn 0.000000 0.607600 -0.794300
usemtl Material
s off
f 31//1 51//1 43//1
f 8//2 72//2 74//2
f 17//3 6//3 13//3
f 19//4 7//4 15//4
f 20//5 8//5 16//5
f 21//6 10//6 28//6
f 18//7 21//7 16//7
f 11//7 21//7 18//7
f 11//6 1//6 32//6
f 22//8 16//8 65//8
f 34//8 15//8 59//8
f 15//5 7//5 20//5
f 29//9 23//9 15//9
f 33//9 13//9 23//9
f 13//4 6//4 19//4
f 24//1 13//1 61//1
f 31//1 11//1 64//1
f 11//3 5//3 17//3
f 5//1 69//1 73//1
f 20//8 76//8 72//8
f 6//10 70//10 75//10
f 35//11 14//11 65//11
f 67//11 36//11 26//11
f 39//11 33//11 12//11
f 62//12 39//12 38//12
f 61//12 27//12 39//12
f 2//1 44//1 47//1
f 32//11 40//11 37//11
f 32//8 52//8 56//8
f 64//11 9//11 36//11
f 40//10 56//10 51//10
f 37//11 41//11 28//11
f 66//11 26//11 35//11
f 42//12 34//12 59//12
f 60//12 38//12 42//12
f 38//11 12//11 29//11
f 58//11 49//11 45//11
f 47//11 44//11 53//11
f 43//11 51//11 56//11
f 57//11 50//11 46//11
f 29//1 49//1 58//1
f 28//2 48//2 46//2
f 1//2 43//2 52//2
f 30//10 50//10 57//10
f 27//2 47//2 55//2
f 33//10 53//10 44//10
f 3//10 45//10 49//10
f 34//8 54//8 45//8
f 41//1 57//1 48//1
f 39//8 55//8 53//8
f 4//8 46//8 50//8
f 42//2 58//2 54//2
f 60//11 63//11 35//11
f 63//11 59//11 14//11
f 9//11 61//11 62//11
f 62//11 60//11 26//11
f 37//13 66//13 68//13
f 31//13 64//13 67//13
f 67//13 66//13 37//13
f 68//13 65//13 30//13
f 73//14 80//14 77//14
f 75//15 82//15 78//15
f 73//14 69//14 25//14
f 75//15 70//15 77//15
f 7//8 71//8 76//8
f 18//2 74//2 69//2
f 19//10 75//10 71//10
f 17//1 73//1 70//1
f 84//16 83//16 78//16
f 80//16 84//16 82//16
f 25//16 81//16 84//16
f 81//16 79//16 83//16
f 76//17 71//17 78//17
f 74//18 81//18 25//18
f 76//17 83//17 79//17
f 74//18 72//18 79//18
f 1//1 31//1 43//1
f 18//2 8//2 74//2
f 24//3 17//3 13//3
f 23//4 19//4 15//4
f 22//5 20//5 16//5
f 28//6 16//6 21//6
f 16//6 28//6 4//6
f 8//7 18//7 16//7
f 5//7 11//7 18//7
f 32//6 21//6 11//6
f 21//6 32//6 10//6
f 16//8 30//8 65//8
f 65//8 14//8 22//8
f 30//8 16//8 4//8
f 15//8 34//8 3//8
f 22//8 14//8 59//8
f 59//8 15//8 22//8
f 22//5 15//5 20//5
f 23//9 29//9 12//9
f 29//9 15//9 3//9
f 13//9 33//9 2//9
f 33//9 23//9 12//9
f 23//4 13//4 19//4
f 13//1 27//1 61//1
f 61//1 9//1 24//1
f 27//1 13//1 2//1
f 11//1 31//1 1//1
f 24//1 9//1 64//1
f 64//1 11//1 24//1
f 24//3 11//3 17//3
f 17//1 5//1 73//1
f 8//8 20//8 72//8
f 19//10 6//10 75//10
f 68//11 35//11 65//11
f 66//11 67//11 26//11
f 38//11 39//11 12//11
f 60//12 62//12 38//12
f 62//12 61//12 39//12
f 27//1 2//1 47//1
f 10//11 32//11 37//11
f 40//8 32//8 56//8
f 67//11 64//11 36//11
f 31//10 40//10 51//10
f 10//11 37//11 28//11
f 68//11 66//11 35//11
f 63//12 42//12 59//12
f 63//12 60//12 42//12
f 42//11 38//11 29//11
f 54//11 58//11 45//11
f 55//11 47//11 53//11
f 52//11 43//11 56//11
f 48//11 57//11 46//11
f 42//1 29//1 58//1
f 4//2 28//2 46//2
f 32//2 1//2 52//2
f 41//10 30//10 57//10
f 39//2 27//2 55//2
f 2//10 33//10 44//10
f 29//10 3//10 49//10
f 3//8 34//8 45//8
f 28//1 41//1 48//1
f 33//8 39//8 53//8
f 30//8 4//8 50//8
f 34//2 42//2 54//2
f 26//11 60//11 35//11
f 35//11 63//11 14//11
f 36//11 9//11 62//11
f 36//11 62//11 26//11
f 41//13 37//13 68//13
f 40//13 31//13 67//13
f 40//13 67//13 37//13
f 41//13 68//13 30//13
f 70//14 73//14 77//14
f 71//15 75//15 78//15
f 80//14 73//14 25//14
f 82//15 75//15 77//15
f 20//8 7//8 76//8
f 5//2 18//2 69//2
f 7//10 19//10 71//10
f 6//1 17//1 70//1
f 82//16 84//16 78//16
f 77//16 80//16 82//16
f 80//16 25//16 84//16
f 84//16 81//16 83//16
f 83//17 76//17 78//17
f 69//18 74//18 25//18
f 72//17 76//17 79//17
f 81//18 74//18 79//18
