# Blender v2.75 (sub 0) OBJ File: ''
# www.blender.org
mtllib hallway.mtl
o Cube
v 10.000000 -1.000000 -10.000000
v 10.000000 -1.000000 10.000000
v -10.000001 -1.000000 9.999998
v -9.999996 -1.000000 -10.000004
v 10.000004 1.000000 -9.999996
v 9.999994 1.000000 10.000006
v -10.000004 1.000000 9.999996
v -9.999999 1.000000 -10.000000
v 10.000000 -1.000000 7.000000
v -10.000000 -1.000000 6.999998
v 9.999996 1.000000 7.000005
v -10.000003 1.000000 6.999997
v -9.999997 -1.000000 -7.450003
v -10.000000 1.000000 -7.450000
v 10.000000 -1.000000 -7.450000
v 10.000003 1.000000 -7.449996
v -6.999997 -1.000000 -10.000003
v -7.000000 -1.000000 9.999998
v -6.999999 1.000000 -9.999999
v -7.000004 1.000000 9.999998
v 7.450000 -1.000000 -7.450000
v -7.000000 -1.000000 6.999998
v -6.999997 -1.000000 -7.450003
v 7.450000 -1.000000 7.000000
v -6.999997 -1.000000 -7.450003
v -7.000000 -1.000000 6.999998
v 7.450000 -1.000000 -10.000001
v 7.450000 -1.000000 10.000000
v 7.450004 1.000000 -9.999997
v 7.449995 1.000000 10.000005
v 7.450000 -1.000000 7.000000
v 7.450000 -1.000000 -7.450000
v 7.450000 -1.000000 -7.450000
v 7.450000 -1.000000 7.000000
v -6.999997 -1.000000 -7.450003
v -7.000000 -1.000000 6.999998
v 7.450000 1.000000 -7.450000
v 7.450000 1.000000 7.000000
v -6.999997 1.000000 -7.450003
v -7.000000 1.000000 6.999998
vn 0.000000 -1.000000 0.000000
vn 0.000000 0.000000 1.000000
vn 1.000000 0.000000 0.000000
vn -1.000000 -0.000000 -0.000000
vn 0.000000 0.000000 -1.000000
usemtl Material
s off
f 22//1 18//1 3//1 10//1
f 26//2 25//2 35//2 36//2
f 9//3 11//3 6//3 2//3
f 18//2 20//2 7//2 3//2
f 13//4 14//4 8//4 4//4
f 19//5 17//5 4//5 8//5
f 3//4 7//4 12//4 10//4
f 15//3 16//3 11//3 9//3
f 25//2 21//2 33//2 35//2
f 23//1 22//1 10//1 13//1
f 17//1 23//1 13//1 4//1
f 24//2 26//2 36//2 34//2
f 1//3 5//3 16//3 15//3
f 10//4 12//4 14//4 13//4
f 27//1 32//1 23//1 17//1
f 32//2 31//2 24//2 21//2
f 21//2 24//2 34//2 33//2
f 29//5 27//5 17//5 19//5
f 28//2 30//2 20//2 18//2
f 36//3 35//3 39//3 40//3
f 31//1 28//1 18//1 22//1
f 9//1 2//1 28//1 31//1
f 23//2 32//2 21//2 25//2
f 2//2 6//2 30//2 28//2
f 5//5 1//5 27//5 29//5
f 22//2 23//2 25//2 26//2
f 15//1 9//1 31//1 32//1
f 1//1 15//1 32//1 27//1
f 31//2 22//2 26//2 24//2
f 35//2 33//2 37//2 39//2
f 33//4 34//4 38//4 37//4
f 34//5 36//5 40//5 38//5
